<svg width="491" height="260" viewBox="0 0 491 260" fill="none" xmlns="http://www.w3.org/2000/svg">
<path fill-rule="evenodd" clip-rule="evenodd" d="M157.832 217.211C156.381 217.912 154.862 218.495 153.286 218.949C140.57 222.609 127.545 224.44 114.289 224.44C110.005 224.44 104.077 224.317 98.7023 223.136C95.4539 222.476 91.6189 221.223 87.8518 219.029C86.117 219.481 84.3757 219.925 82.628 220.362C82.5859 220.372 82.5438 220.383 82.5016 220.393C82.4681 220.401 82.4346 220.41 82.4011 220.418C76.6167 221.814 70.2123 222.9 63.3546 223.758C62.9627 223.807 62.5699 223.848 62.1764 223.88C58.4956 224.187 54.8234 224.44 51.9706 224.44C42.2211 224.44 28.2497 223.255 16.9482 214.901C16.736 214.745 16.526 214.585 16.3182 214.422C3.32142 204.251 0 189.574 0 178.218V101.412C0 89.7906 3.38848 77.4027 12.7162 67.333C21.6323 57.7077 33.1781 53.2399 43.7249 51.3054C47.1794 50.6523 50.7354 50.0576 54.391 49.5197C52.7739 44.706 52.4306 40.2545 52.4306 37.0233C52.4306 32.1944 53.3352 27.805 54.5956 24.024C57.5896 15.042 64.8147 8.11032 73.9132 5.49107C86.6287 1.83054 99.6541 0 112.91 0C117.217 0 123.188 0.123594 128.586 1.32333C136.947 3.06256 147.747 8.62749 152.671 21.1737C154.44 25.4318 155.004 29.2952 155.242 31.5935C155.523 34.3106 155.538 36.9309 155.452 39.2342V59.3768C159.7 56.604 164.176 54.522 168.563 52.9554C168.716 52.9004 168.871 52.8468 169.026 52.7945C184.59 47.5331 205.712 45.7618 229.741 45.7618C238.559 45.7618 248.321 46.5197 257.073 49.637C265.019 52.3035 272.458 57.0581 278.054 64.1858C284.805 58.8207 292.527 55.4731 298.814 53.2099C299.379 53.0065 299.95 52.8209 300.527 52.6533C316.832 47.9133 334.637 45.7618 353.622 45.7618C361.533 45.7618 368.865 46.0925 375.354 46.9036C380.804 47.5847 385.865 49.7989 390.006 53.1908C390.05 53.171 390.094 53.1512 390.139 53.1315C403.034 47.3926 418.886 45.7618 434.767 45.7618C444.101 45.7618 452.406 46.0727 459.152 46.8904C468.731 48.0515 477.088 53.9411 481.404 62.5713C483.887 67.5389 485.818 73.6923 485.818 80.7155C485.818 87.011 484.167 92.4145 482.752 96.0933C479.293 105.088 471.693 111.506 462.763 113.696L478.596 138.69C478.653 138.779 478.708 138.868 478.764 138.958C485.22 149.401 490.877 162.098 490.877 175.918C490.877 185.081 488.126 194.133 482.269 201.903C476.69 209.302 469.447 214.031 462.638 217.089C462.554 217.126 462.47 217.164 462.386 217.2C450.104 222.574 436.185 224.44 422.12 224.44C407.376 224.44 395.067 224.054 385.616 223.163C380.304 222.662 375.333 220.707 371.183 217.626C353.545 222.228 334.923 224.44 315.449 224.44C305.023 224.44 291.83 223.287 280.789 216.744C280.425 216.529 280.066 216.305 279.712 216.074C275.895 213.578 272.768 210.689 270.233 207.555C265.087 211.632 259.425 214.534 253.904 216.614C253.79 216.657 253.675 216.7 253.561 216.741C237.973 222.389 216.591 224.21 192.488 224.21C183.381 224.21 173.499 223.394 164.653 220.235C162.32 219.402 160.036 218.396 157.832 217.211ZM433.305 113.753C433.308 113.752 433.311 113.752 433.314 113.751C433.261 113.762 433.256 113.761 433.305 113.753Z" fill="url(#paint0_linear_742_171)"/>
<path fill-rule="evenodd" clip-rule="evenodd" d="M157.832 217.211C156.381 217.912 154.862 218.495 153.286 218.949C140.57 222.609 127.545 224.44 114.289 224.44C110.005 224.44 104.077 224.317 98.7023 223.136C95.4539 222.476 91.6189 221.223 87.8518 219.029C86.117 219.481 84.3757 219.925 82.628 220.362C82.5859 220.372 82.5438 220.383 82.5016 220.393C82.4681 220.401 82.4346 220.41 82.4011 220.418C76.6167 221.814 70.2123 222.9 63.3546 223.758C62.9627 223.807 62.5699 223.848 62.1764 223.88C58.4956 224.187 54.8234 224.44 51.9706 224.44C42.2211 224.44 28.2497 223.255 16.9482 214.901C16.736 214.745 16.526 214.585 16.3182 214.422C3.32142 204.251 0 189.574 0 178.218V101.412C0 89.7906 3.38848 77.4027 12.7162 67.333C21.6323 57.7077 33.1781 53.2399 43.7249 51.3054C47.1794 50.6523 50.7354 50.0576 54.391 49.5197C52.7739 44.706 52.4306 40.2545 52.4306 37.0233C52.4306 32.1944 53.3352 27.805 54.5956 24.024C57.5896 15.042 64.8147 8.11032 73.9132 5.49107C86.6287 1.83054 99.6541 0 112.91 0C117.217 0 123.188 0.123594 128.586 1.32333C136.947 3.06256 147.747 8.62749 152.671 21.1737C154.44 25.4318 155.004 29.2952 155.242 31.5935C155.523 34.3106 155.538 36.9309 155.452 39.2342V59.3768C159.7 56.604 164.176 54.522 168.563 52.9554C168.716 52.9004 168.871 52.8468 169.026 52.7945C184.59 47.5331 205.712 45.7618 229.741 45.7618C238.559 45.7618 248.321 46.5197 257.073 49.637C265.019 52.3035 272.458 57.0581 278.054 64.1858C284.805 58.8207 292.527 55.4731 298.814 53.2099C299.379 53.0065 299.95 52.8209 300.527 52.6533C316.832 47.9133 334.637 45.7618 353.622 45.7618C361.533 45.7618 368.865 46.0925 375.354 46.9036C380.804 47.5847 385.865 49.7989 390.006 53.1908C390.05 53.171 390.094 53.1512 390.139 53.1315C403.034 47.3926 418.886 45.7618 434.767 45.7618C444.101 45.7618 452.406 46.0727 459.152 46.8904C468.731 48.0515 477.088 53.9411 481.404 62.5713C483.887 67.5389 485.818 73.6923 485.818 80.7155C485.818 87.011 484.167 92.4145 482.752 96.0933C479.293 105.088 471.693 111.506 462.763 113.696L478.596 138.69C478.653 138.779 478.708 138.868 478.764 138.958C485.22 149.401 490.877 162.098 490.877 175.918C490.877 185.081 488.126 194.133 482.269 201.903C476.69 209.302 469.447 214.031 462.638 217.089C462.554 217.126 462.47 217.164 462.386 217.2C450.104 222.574 436.185 224.44 422.12 224.44C407.376 224.44 395.067 224.054 385.616 223.163C380.304 222.662 375.333 220.707 371.183 217.626C353.545 222.228 334.923 224.44 315.449 224.44C305.023 224.44 291.83 223.287 280.789 216.744C280.425 216.529 280.066 216.305 279.712 216.074C275.895 213.578 272.768 210.689 270.233 207.555C265.087 211.632 259.425 214.534 253.904 216.614C253.79 216.657 253.675 216.7 253.561 216.741C237.973 222.389 216.591 224.21 192.488 224.21C183.381 224.21 173.499 223.394 164.653 220.235C162.32 219.402 160.036 218.396 157.832 217.211ZM433.305 113.753C433.308 113.752 433.311 113.752 433.314 113.751C433.261 113.762 433.256 113.761 433.305 113.753Z" fill="#239925" fill-opacity="0.6"/>
<g style="mix-blend-mode:overlay" filter="url(#filter0_d_742_171)">
<path fill-rule="evenodd" clip-rule="evenodd" d="M150.182 192.942C149.65 194.538 148.365 195.771 146.748 196.236C136.168 199.282 125.344 200.805 114.29 200.805C109.815 200.805 106.102 200.602 103.589 200.01C100.825 199.507 97.9325 198.093 96.3813 194.991C96.2732 194.774 96.1805 194.551 96.1041 194.321C95.9072 193.731 95.7542 193.091 95.6379 192.412L93.3522 193.03C87.9423 194.575 82.4569 196.043 76.896 197.433L76.8556 197.443C72.1718 198.573 66.6844 199.523 60.4232 200.306C60.3535 200.314 60.2837 200.322 60.2137 200.327C56.5342 200.634 53.7385 200.805 51.9708 200.805C43.3047 200.805 35.9049 199.523 30.9966 195.895C30.9588 195.867 30.9215 195.839 30.8846 195.81C25.6748 191.733 23.6348 185.405 23.6348 178.218V101.412C23.6348 94.3667 25.6237 88.1781 30.0551 83.3942C34.4154 78.6871 40.63 75.8929 48.0484 74.5413C61.695 71.9569 77.4829 70.3102 95.3819 69.5768V53.5804C95.3819 50.2287 95.2415 47.7861 95.0182 46.1303L82.2435 46.5006C80.3574 46.5553 78.5947 45.5662 77.6585 43.9279C76.4398 41.7953 76.0654 39.3494 76.0654 37.0233C76.0654 35.1565 76.4153 33.3047 77.0175 31.4981C77.5498 29.9012 78.8342 28.669 80.4517 28.2033C91.0316 25.1576 101.856 23.6346 112.91 23.6346C117.387 23.6346 121.101 23.8377 123.615 24.4303C126.54 24.9697 129.469 26.6212 130.747 30.0131C131.335 31.3251 131.601 32.7471 131.733 34.0255C131.88 35.4426 131.895 37.0346 131.818 38.7515V170.859C131.818 174.014 131.939 176.338 132.135 177.937H145.104C146.938 177.937 148.631 178.919 149.541 180.512C150.76 182.644 151.134 185.09 151.134 187.416C151.134 189.283 150.784 191.135 150.182 192.942ZM95.3819 90.5041C84.1692 91.2175 76.2276 92.0887 71.3943 93.0801L71.3697 93.0851C65.4364 94.2718 62.4745 95.5841 61.3546 96.4875C60.8497 96.9964 60.0704 98.3207 60.0704 101.642V172.469C60.0704 174.318 60.6158 174.99 61.1984 175.417C62.078 176.061 64.0179 176.787 67.838 176.787C73.1612 176.787 82.2295 175.148 95.3819 171.573V90.5041ZM225.172 177.347C227.016 176.155 228.435 173.957 228.312 169.151C228.311 169.107 228.31 169.063 228.31 169.02V102.102C228.31 98.8675 228.074 96.3572 227.675 94.4858C227.267 92.5681 226.757 91.6561 226.465 91.2966C226.392 91.2072 226.323 91.1153 226.256 91.0211C225.832 90.4199 224.477 89.275 220.083 89.275C213.542 89.275 208.326 89.5775 204.364 90.1435C200.256 90.7303 198.048 91.5301 197.082 92.1484L197.05 92.1686C194.836 93.563 193.336 95.9635 193.457 100.824C193.458 100.867 193.459 100.909 193.459 100.952V167.87C193.459 171.121 193.678 173.66 194.053 175.564C194.438 177.525 194.923 178.466 195.196 178.831C195.515 179.256 196.994 180.458 202.09 180.466C208.694 180.315 213.955 179.921 217.936 179.317C222.06 178.691 224.249 177.915 225.172 177.347ZM249.348 71.9755C244.373 70.1568 237.717 69.3964 229.741 69.3964C206.184 69.3964 188.311 71.2239 176.594 75.1845C176.579 75.1897 176.564 75.195 176.548 75.2003C176.536 75.2045 176.524 75.2088 176.512 75.2131C170.544 77.3445 165.616 80.4235 162.176 84.6982C158.682 89.0416 157.023 94.2509 157.023 100.032V170.399C157.023 177.337 157.97 183.355 160.362 187.94C160.389 187.991 160.416 188.041 160.444 188.091C163.118 192.821 167.308 196.087 172.603 197.978C177.705 199.8 184.44 200.575 192.488 200.575C216.185 200.575 234.041 198.676 245.51 194.52C245.53 194.513 245.55 194.505 245.571 194.498C251.437 192.287 256.276 189.192 259.655 184.98C263.093 180.695 264.746 175.592 264.746 169.939V99.3421C264.746 92.4042 263.8 86.3869 261.407 81.8011C258.878 76.9531 254.684 73.7152 249.348 71.9755ZM372.423 70.3557C374.019 70.5552 375.428 71.4945 376.226 72.8911C377.651 75.3846 378.739 78.1363 378.739 80.9454C378.739 83.6319 377.816 86.2482 376.518 88.6572C375.523 90.5053 373.499 91.557 371.415 91.3088C365.124 90.5599 359.583 90.1949 354.772 90.1949C343.607 90.1949 334.064 91.8114 326.039 94.9071C322.949 96.1176 322.01 97.2142 321.788 97.6256C321.375 98.3941 320.789 100.766 320.789 105.781V169.939C320.789 172.581 321.038 174.492 321.405 175.805C321.718 176.923 322.049 177.37 322.176 177.509C322.499 177.73 323.334 178.148 325.075 178.496C326.93 178.867 329.442 179.087 332.696 179.087C337.723 179.087 344.771 178.24 353.976 176.431C363.294 174.444 369.495 172.758 372.881 171.404C375.177 170.485 377.801 171.343 379.112 173.44C380.65 175.9 381.039 178.996 381.039 181.897C381.039 184.29 380.692 186.851 379.445 189.032C378.826 190.116 377.831 190.935 376.649 191.336C357.966 197.669 337.551 200.805 315.449 200.805C306.033 200.805 298.204 199.592 292.838 196.412C292.773 196.373 292.709 196.334 292.646 196.292C286.804 192.473 284.354 186.206 284.354 178.908V104.861C284.354 97.4329 285.604 90.9166 289.078 86.3569L289.1 86.3293C292.634 81.756 298.941 78.2839 306.82 75.4474C306.92 75.4113 307.022 75.3783 307.124 75.3485C320.863 71.3545 336.382 69.3964 353.622 69.3964C360.953 69.3964 367.236 69.7073 372.423 70.3557ZM387.836 199.633C386.08 199.467 384.534 198.408 383.745 196.83C382.57 194.481 382.056 191.913 382.056 189.256C382.056 186.766 382.435 184.328 383.416 182.121C384.351 180.018 386.576 178.8 388.851 179.144C393.492 179.848 401.735 180.236 413.841 180.236C421.614 180.236 426.206 179.514 428.385 178.58C428.423 178.564 428.462 178.548 428.5 178.532C429.174 178.263 429.402 177.988 429.514 177.809C429.65 177.592 429.879 177.076 429.887 175.975L429.886 175.978C429.879 175.978 429.823 175.563 429.43 174.551C429.01 173.471 428.337 172.038 427.363 170.219L395.298 119.603C391.606 114.061 388.951 109.441 387.66 105.938C386.336 102.344 385.735 98.3522 385.735 94.0531C385.735 89.7697 386.962 85.8265 389.5 82.4379C391.991 79.112 395.532 76.6006 399.748 74.7245C408.06 71.0256 419.906 69.3964 434.767 69.3964C443.738 69.3964 450.949 69.7038 456.309 70.3534C458.011 70.5598 459.497 71.6068 460.264 73.1411C461.462 75.5368 462.184 78.0803 462.184 80.7155C462.184 82.9691 461.575 85.3163 460.693 87.609C459.838 89.8327 457.559 91.1703 455.201 90.8334C451.285 90.2739 444.993 89.9649 436.147 89.9649C430.521 89.9649 427.082 90.7234 425.223 91.6891C424.368 92.1331 424.009 92.5376 423.848 92.7886C423.701 93.0169 423.55 93.3751 423.55 94.0531C423.55 95.1362 424.107 97.1602 426.315 100.333C426.357 100.393 426.397 100.455 426.437 100.517L458.631 151.338C458.641 151.353 458.651 151.369 458.661 151.385C464.094 160.175 467.243 168.419 467.243 175.918C467.243 180.257 465.982 184.246 463.396 187.675C460.86 191.039 457.256 193.597 452.958 195.527L452.913 195.547C444.679 199.15 434.326 200.805 422.12 200.805C407.65 200.805 396.197 200.421 387.836 199.633Z" fill="white"/>
</g>
<g style="mix-blend-mode:luminosity" opacity="0.8">
<path fill-rule="evenodd" clip-rule="evenodd" d="M150.182 192.942C149.65 194.538 148.365 195.771 146.748 196.236C136.168 199.282 125.344 200.805 114.29 200.805C109.815 200.805 106.102 200.602 103.589 200.01C100.825 199.507 97.9325 198.093 96.3813 194.991C96.2732 194.774 96.1805 194.551 96.1041 194.321C95.9072 193.731 95.7542 193.091 95.6379 192.412L93.3522 193.03C87.9423 194.575 82.4569 196.043 76.896 197.433L76.8556 197.443C72.1718 198.573 66.6844 199.523 60.4232 200.306C60.3535 200.314 60.2837 200.322 60.2137 200.327C56.5342 200.634 53.7385 200.805 51.9708 200.805C43.3047 200.805 35.9049 199.523 30.9966 195.895C30.9588 195.867 30.9215 195.839 30.8846 195.81C25.6748 191.733 23.6348 185.405 23.6348 178.218V101.412C23.6348 94.3667 25.6237 88.1781 30.0551 83.3942C34.4154 78.6871 40.63 75.8929 48.0484 74.5413C61.695 71.9569 77.4829 70.3102 95.3819 69.5768V53.5804C95.3819 50.2287 95.2415 47.7861 95.0182 46.1303L82.2435 46.5006C80.3574 46.5553 78.5947 45.5662 77.6585 43.9279C76.4398 41.7953 76.0654 39.3494 76.0654 37.0233C76.0654 35.1565 76.4153 33.3047 77.0175 31.4981C77.5498 29.9012 78.8342 28.669 80.4517 28.2033C91.0316 25.1576 101.856 23.6346 112.91 23.6346C117.387 23.6346 121.101 23.8377 123.615 24.4303C126.54 24.9697 129.469 26.6212 130.747 30.0131C131.335 31.3251 131.601 32.7471 131.733 34.0255C131.88 35.4426 131.895 37.0346 131.818 38.7515V170.859C131.818 174.014 131.939 176.338 132.135 177.937H145.104C146.938 177.937 148.631 178.919 149.541 180.512C150.76 182.644 151.134 185.09 151.134 187.416C151.134 189.283 150.784 191.135 150.182 192.942ZM95.3819 90.5041C84.1692 91.2175 76.2276 92.0887 71.3943 93.0801L71.3697 93.0851C65.4364 94.2718 62.4745 95.5841 61.3546 96.4875C60.8497 96.9964 60.0704 98.3207 60.0704 101.642V172.469C60.0704 174.318 60.6158 174.99 61.1984 175.417C62.078 176.061 64.0179 176.787 67.838 176.787C73.1612 176.787 82.2295 175.148 95.3819 171.573V90.5041ZM225.172 177.347C227.016 176.155 228.435 173.957 228.312 169.151C228.311 169.107 228.31 169.063 228.31 169.02V102.102C228.31 98.8675 228.074 96.3572 227.675 94.4858C227.267 92.5681 226.757 91.6561 226.465 91.2966C226.392 91.2072 226.323 91.1153 226.256 91.0211C225.832 90.4199 224.477 89.275 220.083 89.275C213.542 89.275 208.326 89.5775 204.364 90.1435C200.256 90.7303 198.048 91.5301 197.082 92.1484L197.05 92.1686C194.836 93.563 193.336 95.9635 193.457 100.824C193.458 100.867 193.459 100.909 193.459 100.952V167.87C193.459 171.121 193.678 173.66 194.053 175.564C194.438 177.525 194.923 178.466 195.196 178.831C195.515 179.256 196.994 180.458 202.09 180.466C208.694 180.315 213.955 179.921 217.936 179.317C222.06 178.691 224.249 177.915 225.172 177.347ZM249.348 71.9755C244.373 70.1568 237.717 69.3964 229.741 69.3964C206.184 69.3964 188.311 71.2239 176.594 75.1845C176.579 75.1897 176.564 75.195 176.548 75.2003C176.536 75.2045 176.524 75.2088 176.512 75.2131C170.544 77.3445 165.616 80.4235 162.176 84.6982C158.682 89.0416 157.023 94.2509 157.023 100.032V170.399C157.023 177.337 157.97 183.355 160.362 187.94C160.389 187.991 160.416 188.041 160.444 188.091C163.118 192.821 167.308 196.087 172.603 197.978C177.705 199.8 184.44 200.575 192.488 200.575C216.185 200.575 234.041 198.676 245.51 194.52C245.53 194.513 245.55 194.505 245.571 194.498C251.437 192.287 256.276 189.192 259.655 184.98C263.093 180.695 264.746 175.592 264.746 169.939V99.3421C264.746 92.4042 263.8 86.3869 261.407 81.8011C258.878 76.9531 254.684 73.7152 249.348 71.9755ZM372.423 70.3557C374.019 70.5552 375.428 71.4945 376.226 72.8911C377.651 75.3846 378.739 78.1363 378.739 80.9454C378.739 83.6319 377.816 86.2482 376.518 88.6572C375.523 90.5053 373.499 91.557 371.415 91.3088C365.124 90.5599 359.583 90.1949 354.772 90.1949C343.607 90.1949 334.064 91.8114 326.039 94.9071C322.949 96.1176 322.01 97.2142 321.788 97.6256C321.375 98.3941 320.789 100.766 320.789 105.781V169.939C320.789 172.581 321.038 174.492 321.405 175.805C321.718 176.923 322.049 177.37 322.176 177.509C322.499 177.73 323.334 178.148 325.075 178.496C326.93 178.867 329.442 179.087 332.696 179.087C337.723 179.087 344.771 178.24 353.976 176.431C363.294 174.444 369.495 172.758 372.881 171.404C375.177 170.485 377.801 171.343 379.112 173.44C380.65 175.9 381.039 178.996 381.039 181.897C381.039 184.29 380.692 186.851 379.445 189.032C378.826 190.116 377.831 190.935 376.649 191.336C357.966 197.669 337.551 200.805 315.449 200.805C306.033 200.805 298.204 199.592 292.838 196.412C292.773 196.373 292.709 196.334 292.646 196.292C286.804 192.473 284.354 186.206 284.354 178.908V104.861C284.354 97.4329 285.604 90.9166 289.078 86.3569L289.1 86.3293C292.634 81.756 298.941 78.2839 306.82 75.4474C306.92 75.4113 307.022 75.3783 307.124 75.3485C320.863 71.3545 336.382 69.3964 353.622 69.3964C360.953 69.3964 367.236 69.7073 372.423 70.3557ZM387.836 199.633C386.08 199.467 384.534 198.408 383.745 196.83C382.57 194.481 382.056 191.913 382.056 189.256C382.056 186.766 382.435 184.328 383.416 182.121C384.351 180.018 386.576 178.8 388.851 179.144C393.492 179.848 401.735 180.236 413.841 180.236C421.614 180.236 426.206 179.514 428.385 178.58C428.423 178.564 428.462 178.548 428.5 178.532C429.174 178.263 429.402 177.988 429.514 177.809C429.65 177.592 429.879 177.076 429.887 175.975L429.886 175.978C429.879 175.978 429.823 175.563 429.43 174.551C429.01 173.471 428.337 172.038 427.363 170.219L395.298 119.603C391.606 114.061 388.951 109.441 387.66 105.938C386.336 102.344 385.735 98.3522 385.735 94.0531C385.735 89.7697 386.962 85.8265 389.5 82.4379C391.991 79.112 395.532 76.6006 399.748 74.7245C408.06 71.0256 419.906 69.3964 434.767 69.3964C443.738 69.3964 450.949 69.7038 456.309 70.3534C458.011 70.5598 459.497 71.6068 460.264 73.1411C461.462 75.5368 462.184 78.0803 462.184 80.7155C462.184 82.9691 461.575 85.3163 460.693 87.609C459.838 89.8327 457.559 91.1703 455.201 90.8334C451.285 90.2739 444.993 89.9649 436.147 89.9649C430.521 89.9649 427.082 90.7234 425.223 91.6891C424.368 92.1331 424.009 92.5376 423.848 92.7886C423.701 93.0169 423.55 93.3751 423.55 94.0531C423.55 95.1362 424.107 97.1602 426.315 100.333C426.357 100.393 426.397 100.455 426.437 100.517L458.631 151.338C458.641 151.353 458.651 151.369 458.661 151.385C464.094 160.175 467.243 168.419 467.243 175.918C467.243 180.257 465.982 184.246 463.396 187.675C460.86 191.039 457.256 193.597 452.958 195.527L452.913 195.547C444.679 199.15 434.326 200.805 422.12 200.805C407.65 200.805 396.197 200.421 387.836 199.633Z" fill="white"/>
</g>
<defs>
<filter id="filter0_d_742_171" x="2.38477" y="2.38464" width="486.108" height="219.67" filterUnits="userSpaceOnUse" color-interpolation-filters="sRGB">
<feFlood flood-opacity="0" result="BackgroundImageFix"/>
<feColorMatrix in="SourceAlpha" type="matrix" values="0 0 0 0 0 0 0 0 0 0 0 0 0 0 0 0 0 0 127 0" result="hardAlpha"/>
<feOffset/>
<feGaussianBlur stdDeviation="10.625"/>
<feComposite in2="hardAlpha" operator="out"/>
<feColorMatrix type="matrix" values="0 0 0 0 0 0 0 0 0 0 0 0 0 0 0 0 0 0 1 0"/>
<feBlend mode="normal" in2="BackgroundImageFix" result="effect1_dropShadow_742_171"/>
<feBlend mode="normal" in="SourceGraphic" in2="effect1_dropShadow_742_171" result="shape"/>
</filter>
<linearGradient id="paint0_linear_742_171" x1="-46.0197" y1="-21.0412" x2="139.645" y2="385.03" gradientUnits="userSpaceOnUse">
<stop stop-color="#CCFF00"/>
<stop offset="1" stop-color="#00CA89"/>
</linearGradient>
</defs>
</svg>
