<svg width="361" height="124" viewBox="0 0 361 124" fill="none" xmlns="http://www.w3.org/2000/svg">
<path d="M57.0122 96.8294C57.9522 96.5838 58.8532 96.2346 59.7009 95.7927L59.7132 95.8034C58.588 96.9114 57.658 98.2365 56.9926 99.7336C55.6421 102.772 55.4759 105.774 55.4759 107.615C55.4759 111.664 57.1172 114.92 58.0479 116.575C60.3082 120.593 64.5504 123.09 69.1607 123.116C81.9673 123.188 93.3316 122.269 103.062 120.177C107.671 119.24 112.86 117.2 116.778 112.786C120.574 108.585 122.042 103.532 122.274 98.823C126.287 100.485 130.53 100.839 133.967 100.839C145.846 100.839 157.013 99.5402 167.392 96.8294C168.479 96.5453 169.515 96.1226 170.475 95.578C173.035 98.4536 176.313 99.7494 178.813 100.257C181.213 100.784 183.859 100.839 185.772 100.839C191.689 100.839 197.504 100.022 203.181 98.3876C204.419 98.0311 205.58 97.4955 206.633 96.8096C208.028 97.7002 209.514 98.4146 211.047 98.9621C214.995 100.372 219.407 100.736 223.473 100.736C234.233 100.736 243.779 99.9236 250.737 97.4023C250.789 97.3838 250.84 97.3649 250.891 97.3456C253.618 96.3181 256.422 94.8413 258.906 92.7018C261.375 95.6884 264.559 97.7407 267.979 98.9621C271.928 100.372 276.339 100.736 280.405 100.736C291.165 100.736 300.711 99.9236 307.67 97.4023L307.711 97.3872C307.749 97.3735 307.786 97.3596 307.823 97.3456C310.581 96.3062 313.419 94.8073 315.924 92.6276C318.523 97.6277 323.055 99.6009 326.287 100.257C328.686 100.784 331.333 100.839 333.245 100.839C339.163 100.839 344.978 100.022 350.654 98.3876C354.716 97.2183 357.942 94.1238 359.278 90.1139C359.841 88.426 360.245 86.4665 360.245 84.3107C360.245 82.2681 359.938 79.1332 358.143 75.9935C356.653 73.386 354.329 71.4333 351.621 70.3879V50.5993C354.341 49.5497 356.66 47.5894 358.143 44.9937C360.007 41.7324 360.245 38.4679 360.245 36.5738C360.245 34.0386 359.583 31.6543 359.21 30.3864C358.065 26.4944 355.202 23.4933 351.621 22.0743V18.403C351.621 15.8432 350.973 11.5663 347.427 8.0201C343.88 4.47388 339.603 3.82523 337.044 3.82523C332.998 3.82523 329.016 4.34421 325.16 5.46056C324.844 5.55215 324.531 5.65589 324.222 5.77155C322.211 6.52563 319.599 7.93727 317.476 10.5919C315.209 13.4257 314.253 16.7367 314.253 19.8402V24.1392C313.915 24.2903 313.584 24.4557 313.261 24.635C311.979 23.8763 310.625 23.2678 309.237 22.8021C305.331 21.4105 300.973 21.0721 297.036 21.0721C286.309 21.0721 276.879 21.8629 269.931 24.2117C269.862 24.2351 269.793 24.259 269.724 24.2836C267.098 25.2216 264.399 26.5734 261.971 28.5282C261.103 27.4625 260.073 26.4543 258.854 25.5361C253.778 21.6447 247.479 21.0721 243.081 21.0721C241.783 21.0721 239.956 21.1698 237.915 21.3059C237.744 21.3173 237.573 21.3322 237.402 21.3505C236.508 21.4463 235.521 21.6006 234.457 21.8027V18.1579C234.496 17.1297 234.489 15.9599 234.364 14.747C234.257 13.7209 234.006 11.996 233.216 10.0949C231.017 4.49424 226.196 2.00999 222.464 1.23355C220.054 0.697947 217.388 0.642761 215.465 0.642761C209.548 0.642761 203.733 1.45997 198.056 3.09413C196.82 3.44984 195.662 3.98371 194.611 4.6673C192.696 4.00057 190.901 3.82523 189.57 3.82523C185.524 3.82523 181.543 4.34421 177.686 5.46056C177.37 5.55215 177.057 5.65589 176.749 5.77155C174.738 6.52563 172.126 7.93727 170.002 10.5919C167.735 13.4257 166.78 16.7367 166.78 19.8402V24.0977C165.79 23.5831 164.767 23.1523 163.723 22.8021C159.816 21.4105 155.458 21.0721 151.522 21.0721C141.448 21.0721 132.346 21.8466 125.663 24.353L125.623 24.368C122.855 25.4163 120.047 26.9466 117.591 29.1624C115.105 26.0551 111.828 23.9756 108.331 22.8021C104.424 21.4105 100.066 21.0721 96.1293 21.0721C85.4022 21.0721 75.9728 21.8629 69.0242 24.2117C68.955 24.2351 68.8861 24.259 68.8174 24.2836C66.4026 25.146 63.9267 26.3584 61.6564 28.0676C59.3123 25.5597 56.4127 23.832 53.3436 22.8021C49.4367 21.4105 45.0787 21.0721 41.142 21.0721C31.0683 21.0721 21.9667 21.8466 15.2829 24.353L15.2431 24.368C11.3801 25.8313 7.43853 28.2335 4.48352 32.1288C1.43609 36.1458 0.180664 40.7751 0.180664 45.2999V80.5123C0.180664 85.8536 1.96377 92.415 8.0596 96.7329C8.12634 96.7802 8.19353 96.8268 8.26117 96.8728C13.2008 100.232 19.0849 100.839 23.5872 100.839C35.4665 100.839 46.6336 99.5402 57.0122 96.8294Z" fill="#239925"/>
<path fill-rule="evenodd" clip-rule="evenodd" d="M55.7067 78.7734C55.2256 77.8113 54.1377 77.3159 53.0961 77.5847C51.0862 78.1034 47.755 78.7398 43.041 79.4913L43.0359 79.4922C38.4297 80.2373 34.872 80.5921 32.3129 80.5921C30.86 80.5921 29.7387 80.4941 28.9105 80.3285C28.1333 80.173 27.7606 79.9863 27.6165 79.8881C27.5598 79.8259 27.4119 79.6261 27.2722 79.1272C27.1081 78.5412 26.9974 77.6878 26.9974 76.5085V66.9287C32.7346 66.4841 39.0027 65.74 45.7987 64.6992C45.8454 64.692 45.8918 64.6834 45.938 64.6734C49.3257 63.9369 52.1351 62.6549 54.0163 60.5946C54.0272 60.5827 54.0379 60.5707 54.0485 60.5586C55.9519 58.3832 56.7688 55.5296 56.7688 52.2808V44.9919C56.7688 41.8946 56.3463 39.2083 55.2781 37.1611C54.1489 34.9968 52.2765 33.5513 49.8946 32.7747C47.6738 31.9627 44.7021 31.6233 41.1416 31.6233C31.2475 31.6233 23.777 32.4362 18.9873 34.2324L18.9802 34.235C16.4365 35.1986 14.343 36.5893 12.8892 38.5058C11.4189 40.4438 10.7314 42.751 10.7314 45.2999V80.5123C10.7314 83.6565 11.7237 86.3986 14.158 88.1229C14.1698 88.1313 14.1818 88.1396 14.1938 88.1478C16.4788 89.7015 19.7476 90.2878 23.5868 90.2878C34.7023 90.2878 44.9597 89.0722 54.3454 86.6207C54.939 86.4656 55.4452 86.078 55.7496 85.5452C56.306 84.5715 56.4608 83.4285 56.4608 82.3602C56.4608 81.0948 56.2519 79.8638 55.7067 78.7734ZM26.9974 57.5727C30.3933 57.2248 33.2059 56.8363 35.4477 56.4106C36.7671 56.1198 37.7981 55.8186 38.5696 55.5186C39.3752 55.2052 39.7588 54.9459 39.9022 54.8135C40.0627 54.6654 40.5029 54.001 40.5029 51.9728V45.7105C40.5029 44.3767 40.3983 43.3531 40.2263 42.599C40.0507 41.829 39.8367 41.4811 39.7256 41.353C39.6905 41.3124 39.6568 41.2707 39.6246 41.2277C39.4522 40.9978 38.8349 40.4977 36.8299 40.4977C34.5148 40.4977 32.6488 40.6392 31.2005 40.8983C29.7238 41.1626 28.8391 41.5223 28.36 41.8481C28.3425 41.86 28.3248 41.8717 28.307 41.8831C27.5211 42.3861 26.8823 43.3522 26.9945 45.5966C26.9964 45.6346 26.9974 45.6725 26.9974 45.7105V57.5727Z" fill="white"/>
<path fill-rule="evenodd" clip-rule="evenodd" d="M67.2437 111.402C67.6455 112.117 68.3996 112.56 69.2193 112.565C81.5678 112.634 92.1413 111.739 100.905 109.848C104.25 109.177 107.034 107.888 108.916 105.749C110.896 103.577 111.756 100.716 111.756 97.4512V44.9919C111.756 41.8946 111.334 39.2083 110.265 37.1611C109.136 34.9968 107.264 33.5513 104.882 32.7747C102.661 31.9627 99.6894 31.6233 96.1289 31.6233C85.6121 31.6233 77.6332 32.4391 72.4025 34.2073C72.3903 34.2114 72.378 34.2157 72.3658 34.22C69.7016 35.1715 67.5014 36.5461 65.966 38.4545C64.4059 40.3935 63.6655 42.719 63.6655 45.2999V80.2043C63.6655 83.4128 64.5763 86.2377 66.9021 88.0578C66.9185 88.0707 66.9352 88.0834 66.9521 88.0959C69.1433 89.7154 72.4468 90.2878 76.3155 90.2878C79.3652 90.2878 82.3496 89.9255 85.2643 89.1988C87.6889 88.6442 90.5829 87.9203 93.9421 87.0291L93.9703 87.0214L95.4902 86.5973V96.6299C95.4902 97.9995 95.3489 98.6996 95.2427 98.9651C95.2175 99.028 95.1952 99.092 95.1757 99.1569C95.1486 99.2474 95.0024 99.572 94.3883 100.09C93.8593 100.494 92.7294 100.984 90.6782 101.369L90.6445 101.375C86.5109 102.215 79.2553 102.664 68.7187 102.664C67.8171 102.664 67.0002 103.195 66.634 104.019C66.1688 105.066 66.0267 106.331 66.0267 107.615C66.0267 108.897 66.5717 110.208 67.2437 111.402ZM95.4902 77.2516V46.2238C95.4902 44.78 95.3847 43.6593 95.2066 42.8239C95.0242 41.9678 94.7967 41.5607 94.6663 41.4002C94.6339 41.3602 94.6028 41.3192 94.5731 41.2772C94.3837 41.0088 93.779 40.4977 91.8172 40.4977C88.8972 40.4977 86.5685 40.6327 84.7997 40.8854C82.966 41.1473 81.9803 41.5044 81.549 41.7804L81.5348 41.7894C80.5462 42.4119 79.8765 43.4836 79.9307 45.6535C79.9312 45.6725 79.9315 45.6915 79.9315 45.7105V77.6378C79.9315 78.4633 80.1749 78.7635 80.435 78.9539C80.8277 79.2414 81.6937 79.5655 83.3991 79.5655C85.829 79.5655 89.8133 78.838 95.4902 77.2516Z" fill="white"/>
<path fill-rule="evenodd" clip-rule="evenodd" d="M166.086 78.7734C165.605 77.8113 164.517 77.3159 163.476 77.5847C161.466 78.1034 158.135 78.7398 153.421 79.4913L153.415 79.4922C148.809 80.2373 145.252 80.5921 142.693 80.5921C141.24 80.5921 140.118 80.4941 139.29 80.3285C138.513 80.173 138.14 79.9863 137.996 79.8881C137.939 79.8259 137.792 79.6262 137.652 79.1272C137.488 78.5412 137.377 77.6878 137.377 76.5085V66.9287C143.114 66.4841 149.382 65.74 156.178 64.6992C156.225 64.692 156.271 64.6834 156.318 64.6734C159.705 63.9369 162.515 62.6549 164.396 60.5946L164.417 60.5716L164.428 60.5586C166.332 58.3832 167.148 55.5296 167.148 52.2808V44.9919C167.148 41.8946 166.726 39.2083 165.658 37.1611C164.529 34.9968 162.656 33.5513 160.274 32.7747C158.053 31.9627 155.082 31.6233 151.521 31.6233C141.627 31.6233 134.157 32.4363 129.367 34.2324L129.36 34.235C126.816 35.1986 124.723 36.5893 123.269 38.5058C121.799 40.4438 121.111 42.751 121.111 45.2999V80.5123C121.111 83.6565 122.103 86.3986 124.538 88.1229C124.549 88.1313 124.561 88.1396 124.573 88.1478C126.858 89.7015 130.127 90.2878 133.966 90.2878C145.082 90.2878 155.339 89.0722 164.725 86.6207C165.319 86.4656 165.825 86.078 166.129 85.5452C166.686 84.5715 166.84 83.4285 166.84 82.3602C166.84 81.0948 166.631 79.8638 166.086 78.7734ZM137.377 57.5727C140.773 57.2248 143.585 56.8363 145.827 56.4106C147.147 56.1198 148.178 55.8186 148.949 55.5186C149.755 55.2052 150.138 54.9459 150.282 54.8135C150.442 54.6654 150.882 54.001 150.882 51.9728V45.7105C150.882 44.3767 150.778 43.3531 150.606 42.599C150.43 41.829 150.216 41.4811 150.105 41.353C150.07 41.3124 150.036 41.2707 150.004 41.2277C149.832 40.9978 149.215 40.4977 147.21 40.4977C144.894 40.4977 143.028 40.6392 141.58 40.8983C140.103 41.1626 139.219 41.5223 138.74 41.8481L138.72 41.8615C138.709 41.8688 138.698 41.876 138.687 41.8831C137.901 42.3861 137.262 43.3522 137.374 45.5966C137.376 45.6346 137.377 45.6725 137.377 45.7105V57.5727Z" fill="white"/>
<path d="M200.261 88.2482C200.984 88.0404 201.557 87.4902 201.795 86.7774C202.063 85.9708 202.22 85.1441 202.22 84.3107C202.22 83.2723 202.052 82.1804 201.508 81.2283C201.091 80.4969 200.304 80.0554 199.462 80.0798L193.759 80.2451C193.659 79.5059 193.596 78.4155 193.596 76.9192V41.3596L199.698 40.9019C200.454 40.8452 201.132 40.4169 201.508 39.7588C202.065 38.7851 202.22 37.642 202.22 36.5738C202.22 35.6729 201.961 34.5456 201.614 33.3636C201.31 32.3309 200.326 31.651 199.252 31.7325L193.596 32.1621V18.403C193.596 17.4696 193.361 16.3505 192.492 15.4809C191.622 14.6113 190.503 14.3764 189.57 14.3764C186.431 14.3764 183.444 14.7782 180.62 15.5956C180.564 15.6119 180.508 15.6303 180.453 15.6509C179.645 15.9538 178.843 16.4298 178.241 17.1831C177.613 17.9683 177.33 18.8946 177.33 19.8402V33.2095L171.861 33.579C171.099 33.6305 170.413 34.06 170.034 34.7233C169.478 35.697 169.323 36.8401 169.323 37.9084C169.323 38.8092 169.581 39.9365 169.929 41.1186C170.231 42.1452 171.206 42.824 172.273 42.7509L177.33 42.4045V83.5388C177.264 84.9785 177.307 86.3556 177.653 87.3933C177.687 87.4957 177.728 87.5956 177.776 87.6921C178.469 89.0771 179.76 89.7083 180.994 89.933C182.116 90.1973 183.774 90.2878 185.771 90.2878C190.706 90.2878 195.538 89.6079 200.261 88.2482Z" fill="white"/>
<path fill-rule="evenodd" clip-rule="evenodd" d="M255.73 41.7068C255.73 38.5204 254.83 35.6967 252.469 33.9367C250.268 32.2289 246.95 31.6233 243.08 31.6233C242.174 31.6233 240.668 31.6969 238.617 31.8337L238.587 31.8359C238.566 31.8375 238.546 31.8394 238.526 31.8416C236.401 32.0693 232.953 32.8713 228.311 34.1681C226.503 34.6539 225.036 35.0476 223.906 35.3503V17.9426C223.94 17.1761 223.933 16.4653 223.868 15.8327C223.809 15.262 223.691 14.6272 223.428 14.0415C222.858 12.5272 221.55 11.7899 220.244 11.5491C219.121 11.2846 217.463 11.1939 215.465 11.1939C210.53 11.1939 205.698 11.8738 200.975 13.2335C200.253 13.4414 199.679 13.9915 199.441 14.7044C199.173 15.5109 199.016 16.3376 199.016 17.171C199.016 18.2094 199.184 19.3014 199.728 20.2534C200.146 20.9848 200.933 21.4264 201.775 21.4019L207.478 21.2366C207.577 21.9758 207.64 23.0663 207.64 24.5626V76.7139C207.64 79.8112 208.062 82.4974 209.131 84.5447C209.142 84.5673 209.155 84.5898 209.167 84.612C210.361 86.7237 212.231 88.1815 214.595 89.0257C216.873 89.8391 219.88 90.1852 223.472 90.1852C234.051 90.1852 242.023 89.3373 247.143 87.4822L247.17 87.4721C249.789 86.4854 251.949 85.1036 253.458 83.2232C254.992 81.3102 255.73 79.0319 255.73 76.5085V41.7068ZM239.465 76.0979V44.2733C239.465 43.4478 239.221 43.1477 238.961 42.9572C238.568 42.6697 237.702 42.3456 235.997 42.3456C233.567 42.3456 229.583 43.0731 223.906 44.6595V75.5846C223.906 77.0361 224.004 78.1696 224.171 79.0197C224.343 79.8948 224.559 80.3152 224.681 80.4781C224.824 80.6686 225.489 81.2081 227.784 81.2081C231.404 81.2081 234.049 81.0057 235.806 80.647C237.53 80.2257 238.362 79.6527 238.732 79.1898L238.743 79.1764C239.177 78.6426 239.522 77.7433 239.466 76.1793C239.465 76.1666 239.465 76.1539 239.465 76.1411L239.465 76.1216L239.465 76.0979Z" fill="white"/>
<path fill-rule="evenodd" clip-rule="evenodd" d="M305.789 32.7747C303.568 31.9627 300.596 31.6233 297.036 31.6233C286.519 31.6233 278.54 32.4391 273.309 34.2073C273.297 34.2114 273.285 34.2157 273.272 34.22C270.608 35.1715 268.408 36.5461 266.873 38.4545C265.312 40.3935 264.572 42.719 264.572 45.2999V76.7139C264.572 79.8112 264.995 82.4974 266.063 84.5447C266.075 84.5673 266.087 84.5898 266.099 84.612C267.293 86.7237 269.164 88.1815 271.527 89.0257C273.805 89.8391 276.812 90.1852 280.405 90.1852C290.984 90.1852 298.955 89.3373 304.075 87.4822L304.102 87.4721C306.721 86.4854 308.881 85.1036 310.39 83.2232C311.925 81.3102 312.663 79.0319 312.663 76.5085V44.9919C312.663 41.8946 312.24 39.2083 311.172 37.1611C310.043 34.9968 308.17 33.5513 305.789 32.7747ZM296.397 76.0979V46.2238C296.397 44.78 296.291 43.6593 296.113 42.8239C295.931 41.9678 295.703 41.5607 295.573 41.4002C295.54 41.3602 295.509 41.3192 295.48 41.2772C295.29 41.0088 294.686 40.4977 292.724 40.4977C289.804 40.4977 287.475 40.6327 285.706 40.8854C283.873 41.1473 282.887 41.5044 282.456 41.7804L282.441 41.7894C281.453 42.4119 280.783 43.4836 280.837 45.6535L280.838 45.6804L280.838 45.7105V75.5846C280.838 77.0361 280.936 78.1696 281.103 79.0197C281.275 79.8948 281.492 80.3152 281.614 80.4781C281.756 80.6679 282.416 81.2042 284.691 81.2081C287.64 81.1403 289.988 80.9648 291.766 80.695C293.607 80.4154 294.585 80.0686 294.996 79.8152C295.819 79.283 296.452 78.3017 296.397 76.1564L296.397 76.1284L296.397 76.0979Z" fill="white"/>
<path d="M347.735 88.2482C348.457 88.0404 349.031 87.4902 349.268 86.7774C349.537 85.9708 349.693 85.1441 349.693 84.3107C349.693 83.2723 349.526 82.1804 348.982 81.2283C348.564 80.4969 347.777 80.0554 346.935 80.0798L341.232 80.2451C341.133 79.5059 341.07 78.4155 341.07 76.9192V41.3596L347.172 40.9019C347.928 40.8452 348.606 40.4169 348.982 39.7588C349.538 38.7851 349.693 37.642 349.693 36.5738C349.693 35.6729 349.435 34.5456 349.087 33.3636C348.784 32.3309 347.799 31.651 346.726 31.7325L341.07 32.1621V18.403C341.07 17.4696 340.835 16.3505 339.965 15.4809C339.096 14.6113 337.977 14.3764 337.043 14.3764C333.904 14.3764 330.917 14.7782 328.093 15.5956C328.037 15.6119 327.982 15.6303 327.927 15.6509C327.119 15.9538 326.317 16.4298 325.714 17.1831C325.086 17.9683 324.804 18.8946 324.804 19.8402V33.2095L319.335 33.579C318.572 33.6305 317.887 34.06 317.508 34.7233C316.951 35.697 316.796 36.8401 316.796 37.9084C316.796 38.8092 317.055 39.9365 317.402 41.1186C317.704 42.1452 318.679 42.824 319.747 42.7509L324.804 42.4045V83.5385C324.738 84.9783 324.78 86.3556 325.126 87.3933C325.16 87.4957 325.202 87.5956 325.25 87.6921C325.943 89.0771 327.234 89.7083 328.468 89.933C329.59 90.1973 331.247 90.2878 333.245 90.2878C338.18 90.2878 343.012 89.6079 347.735 88.2482Z" fill="white"/>
</svg>
