<svg width="361" height="124" viewBox="0 0 361 124" fill="none" xmlns="http://www.w3.org/2000/svg">
<path d="M57.0122 96.8294C57.9522 96.5838 58.8532 96.2346 59.7009 95.7927L59.7132 95.8034C58.588 96.9114 57.658 98.2365 56.9926 99.7336C55.6421 102.772 55.4759 105.774 55.4759 107.615C55.4759 111.664 57.1172 114.92 58.0479 116.575C60.3082 120.593 64.5504 123.09 69.1607 123.116C81.9673 123.188 93.3316 122.269 103.062 120.177C107.671 119.24 112.86 117.2 116.778 112.786C120.574 108.585 122.042 103.532 122.274 98.823C126.287 100.485 130.53 100.839 133.967 100.839C145.846 100.839 157.013 99.5402 167.392 96.8294C168.479 96.5453 169.515 96.1226 170.475 95.578C173.035 98.4536 176.313 99.7494 178.813 100.257C181.213 100.784 183.859 100.839 185.772 100.839C191.689 100.839 197.504 100.022 203.181 98.3876C204.419 98.0311 205.58 97.4955 206.633 96.8096C208.028 97.7002 209.514 98.4146 211.047 98.9621C214.995 100.372 219.407 100.736 223.473 100.736C234.233 100.736 243.779 99.9236 250.737 97.4023C250.789 97.3838 250.84 97.3649 250.891 97.3456C253.618 96.3181 256.422 94.8413 258.906 92.7018C261.375 95.6884 264.559 97.7407 267.979 98.9621C271.928 100.372 276.339 100.736 280.405 100.736C291.165 100.736 300.711 99.9236 307.67 97.4023L307.711 97.3872C307.749 97.3735 307.786 97.3596 307.823 97.3456C310.581 96.3062 313.419 94.8073 315.924 92.6276C318.523 97.6277 323.055 99.6009 326.287 100.257C328.686 100.784 331.333 100.839 333.245 100.839C339.163 100.839 344.978 100.022 350.654 98.3876C354.716 97.2183 357.942 94.1238 359.278 90.1139C359.841 88.426 360.245 86.4665 360.245 84.3107C360.245 82.2681 359.938 79.1332 358.143 75.9935C356.653 73.386 354.329 71.4333 351.621 70.3879V50.5993C354.341 49.5497 356.66 47.5894 358.143 44.9937C360.007 41.7324 360.245 38.4679 360.245 36.5738C360.245 34.0386 359.583 31.6543 359.21 30.3864C358.065 26.4944 355.202 23.4933 351.621 22.0743V18.403C351.621 15.8432 350.973 11.5663 347.427 8.0201C343.88 4.47388 339.603 3.82523 337.044 3.82523C332.998 3.82523 329.016 4.34421 325.16 5.46056C324.844 5.55215 324.531 5.65589 324.222 5.77155C322.211 6.52563 319.599 7.93727 317.476 10.5919C315.209 13.4257 314.253 16.7367 314.253 19.8402V24.1392C313.915 24.2903 313.584 24.4557 313.261 24.635C311.979 23.8763 310.625 23.2678 309.237 22.8021C305.331 21.4105 300.973 21.0721 297.036 21.0721C286.309 21.0721 276.879 21.8629 269.931 24.2117C269.862 24.2351 269.793 24.259 269.724 24.2836C267.098 25.2216 264.399 26.5734 261.971 28.5282C261.103 27.4625 260.073 26.4543 258.854 25.5361C253.778 21.6447 247.479 21.0721 243.081 21.0721C241.783 21.0721 239.956 21.1698 237.915 21.3059C237.744 21.3173 237.573 21.3322 237.402 21.3505C236.508 21.4463 235.521 21.6006 234.457 21.8027V18.1579C234.496 17.1297 234.489 15.9599 234.364 14.747C234.257 13.7209 234.006 11.996 233.216 10.0949C231.017 4.49424 226.196 2.00999 222.464 1.23355C220.054 0.697947 217.388 0.642761 215.465 0.642761C209.548 0.642761 203.733 1.45997 198.056 3.09413C196.82 3.44984 195.662 3.98371 194.611 4.6673C192.696 4.00057 190.901 3.82523 189.57 3.82523C185.524 3.82523 181.543 4.34421 177.686 5.46056C177.37 5.55215 177.057 5.65589 176.749 5.77155C174.738 6.52563 172.126 7.93727 170.002 10.5919C167.735 13.4257 166.78 16.7367 166.78 19.8402V24.0977C165.79 23.5831 164.767 23.1523 163.723 22.8021C159.816 21.4105 155.458 21.0721 151.522 21.0721C141.448 21.0721 132.346 21.8466 125.663 24.353L125.623 24.368C122.855 25.4163 120.047 26.9466 117.591 29.1624C115.105 26.0551 111.828 23.9756 108.331 22.8021C104.424 21.4105 100.066 21.0721 96.1293 21.0721C85.4022 21.0721 75.9728 21.8629 69.0242 24.2117C68.955 24.2351 68.8861 24.259 68.8174 24.2836C66.4026 25.146 63.9267 26.3584 61.6564 28.0676C59.3123 25.5597 56.4127 23.832 53.3436 22.8021C49.4367 21.4105 45.0787 21.0721 41.142 21.0721C31.0683 21.0721 21.9667 21.8466 15.2829 24.353L15.2431 24.368C11.3801 25.8313 7.43853 28.2335 4.48352 32.1288C1.43609 36.1458 0.180664 40.7751 0.180664 45.2999V80.5123C0.180664 85.8536 1.96377 92.415 8.0596 96.7329C8.12634 96.7802 8.19353 96.8268 8.26117 96.8728C13.2008 100.232 19.0849 100.839 23.5872 100.839C35.4665 100.839 46.6336 99.5402 57.0122 96.8294Z" fill="url(#paint0_linear_751_174)"/>
<path d="M57.0122 96.8294C57.9522 96.5838 58.8532 96.2346 59.7009 95.7927L59.7132 95.8034C58.588 96.9114 57.658 98.2365 56.9926 99.7336C55.6421 102.772 55.4759 105.774 55.4759 107.615C55.4759 111.664 57.1172 114.92 58.0479 116.575C60.3082 120.593 64.5504 123.09 69.1607 123.116C81.9673 123.188 93.3316 122.269 103.062 120.177C107.671 119.24 112.86 117.2 116.778 112.786C120.574 108.585 122.042 103.532 122.274 98.823C126.287 100.485 130.53 100.839 133.967 100.839C145.846 100.839 157.013 99.5402 167.392 96.8294C168.479 96.5453 169.515 96.1226 170.475 95.578C173.035 98.4536 176.313 99.7494 178.813 100.257C181.213 100.784 183.859 100.839 185.772 100.839C191.689 100.839 197.504 100.022 203.181 98.3876C204.419 98.0311 205.58 97.4955 206.633 96.8096C208.028 97.7002 209.514 98.4146 211.047 98.9621C214.995 100.372 219.407 100.736 223.473 100.736C234.233 100.736 243.779 99.9236 250.737 97.4023C250.789 97.3838 250.84 97.3649 250.891 97.3456C253.618 96.3181 256.422 94.8413 258.906 92.7018C261.375 95.6884 264.559 97.7407 267.979 98.9621C271.928 100.372 276.339 100.736 280.405 100.736C291.165 100.736 300.711 99.9236 307.67 97.4023L307.711 97.3872C307.749 97.3735 307.786 97.3596 307.823 97.3456C310.581 96.3062 313.419 94.8073 315.924 92.6276C318.523 97.6277 323.055 99.6009 326.287 100.257C328.686 100.784 331.333 100.839 333.245 100.839C339.163 100.839 344.978 100.022 350.654 98.3876C354.716 97.2183 357.942 94.1238 359.278 90.1139C359.841 88.426 360.245 86.4665 360.245 84.3107C360.245 82.2681 359.938 79.1332 358.143 75.9935C356.653 73.386 354.329 71.4333 351.621 70.3879V50.5993C354.341 49.5497 356.66 47.5894 358.143 44.9937C360.007 41.7324 360.245 38.4679 360.245 36.5738C360.245 34.0386 359.583 31.6543 359.21 30.3864C358.065 26.4944 355.202 23.4933 351.621 22.0743V18.403C351.621 15.8432 350.973 11.5663 347.427 8.0201C343.88 4.47388 339.603 3.82523 337.044 3.82523C332.998 3.82523 329.016 4.34421 325.16 5.46056C324.844 5.55215 324.531 5.65589 324.222 5.77155C322.211 6.52563 319.599 7.93727 317.476 10.5919C315.209 13.4257 314.253 16.7367 314.253 19.8402V24.1392C313.915 24.2903 313.584 24.4557 313.261 24.635C311.979 23.8763 310.625 23.2678 309.237 22.8021C305.331 21.4105 300.973 21.0721 297.036 21.0721C286.309 21.0721 276.879 21.8629 269.931 24.2117C269.862 24.2351 269.793 24.259 269.724 24.2836C267.098 25.2216 264.399 26.5734 261.971 28.5282C261.103 27.4625 260.073 26.4543 258.854 25.5361C253.778 21.6447 247.479 21.0721 243.081 21.0721C241.783 21.0721 239.956 21.1698 237.915 21.3059C237.744 21.3173 237.573 21.3322 237.402 21.3505C236.508 21.4463 235.521 21.6006 234.457 21.8027V18.1579C234.496 17.1297 234.489 15.9599 234.364 14.747C234.257 13.7209 234.006 11.996 233.216 10.0949C231.017 4.49424 226.196 2.00999 222.464 1.23355C220.054 0.697947 217.388 0.642761 215.465 0.642761C209.548 0.642761 203.733 1.45997 198.056 3.09413C196.82 3.44984 195.662 3.98371 194.611 4.6673C192.696 4.00057 190.901 3.82523 189.57 3.82523C185.524 3.82523 181.543 4.34421 177.686 5.46056C177.37 5.55215 177.057 5.65589 176.749 5.77155C174.738 6.52563 172.126 7.93727 170.002 10.5919C167.735 13.4257 166.78 16.7367 166.78 19.8402V24.0977C165.79 23.5831 164.767 23.1523 163.723 22.8021C159.816 21.4105 155.458 21.0721 151.522 21.0721C141.448 21.0721 132.346 21.8466 125.663 24.353L125.623 24.368C122.855 25.4163 120.047 26.9466 117.591 29.1624C115.105 26.0551 111.828 23.9756 108.331 22.8021C104.424 21.4105 100.066 21.0721 96.1293 21.0721C85.4022 21.0721 75.9728 21.8629 69.0242 24.2117C68.955 24.2351 68.8861 24.259 68.8174 24.2836C66.4026 25.146 63.9267 26.3584 61.6564 28.0676C59.3123 25.5597 56.4127 23.832 53.3436 22.8021C49.4367 21.4105 45.0787 21.0721 41.142 21.0721C31.0683 21.0721 21.9667 21.8466 15.2829 24.353L15.2431 24.368C11.3801 25.8313 7.43853 28.2335 4.48352 32.1288C1.43609 36.1458 0.180664 40.7751 0.180664 45.2999V80.5123C0.180664 85.8536 1.96377 92.415 8.0596 96.7329C8.12634 96.7802 8.19353 96.8268 8.26117 96.8728C13.2008 100.232 19.0849 100.839 23.5872 100.839C35.4665 100.839 46.6336 99.5402 57.0122 96.8294Z" fill="#239925" fill-opacity="0.6"/>
<g style="mix-blend-mode:overlay" filter="url(#filter0_d_751_174)">
<path fill-rule="evenodd" clip-rule="evenodd" d="M55.7062 78.7735C55.2251 77.8113 54.1372 77.316 53.0956 77.5848C51.0857 78.1035 47.7546 78.7399 43.0405 79.4914L43.0354 79.4922C38.4292 80.2373 34.8716 80.5922 32.3124 80.5922C30.8596 80.5922 29.7382 80.4942 28.91 80.3285C28.1329 80.1731 27.7601 79.9864 27.616 79.8881C27.5593 79.826 27.4114 79.6262 27.2717 79.1273C27.1076 78.5412 26.9969 77.6879 26.9969 76.5086V66.9288C32.7341 66.4842 39.0022 65.7401 45.7983 64.6992C45.8449 64.6921 45.8914 64.6835 45.9375 64.6735C49.3252 63.937 52.1347 62.655 54.0158 60.5946C54.0267 60.5828 54.0374 60.5708 54.048 60.5587C55.9515 58.3833 56.7683 55.5297 56.7683 52.2808V44.992C56.7683 41.8947 56.3458 39.2084 55.2776 37.1611C54.1485 34.9969 52.2761 33.5514 49.8942 32.7747C47.6734 31.9628 44.7016 31.6233 41.1412 31.6233C31.247 31.6233 23.7765 32.4363 18.9868 34.2324L18.9798 34.2351C16.436 35.1986 14.3425 36.5894 12.8887 38.5058C11.4184 40.4439 10.731 42.7511 10.731 45.2999V80.5124C10.731 83.6566 11.7232 86.3987 14.1575 88.1229C14.1694 88.1314 14.1813 88.1396 14.1933 88.1478C16.4783 89.7016 19.7471 90.2879 23.5863 90.2879C34.7018 90.2879 44.9592 89.0722 54.3449 86.6207C54.9385 86.4657 55.4447 86.078 55.7491 85.5453C56.3055 84.5716 56.4603 83.4285 56.4603 82.3603C56.4603 81.0949 56.2514 79.8639 55.7062 78.7735ZM26.9969 57.5728C30.3928 57.2249 33.2054 56.8363 35.4472 56.4107C36.7666 56.1199 37.7976 55.8186 38.5691 55.5186C39.3747 55.2053 39.7583 54.946 39.9018 54.8136C40.0622 54.6655 40.5024 54.0011 40.5024 51.9729V45.7106C40.5024 44.3767 40.3978 43.3531 40.2259 42.5991C40.0502 41.829 39.8362 41.4812 39.7252 41.3531C39.69 41.3125 39.6563 41.2707 39.6241 41.2278C39.4517 40.9979 38.8345 40.4977 36.8294 40.4977C34.5144 40.4977 32.6483 40.6392 31.2 40.8984C29.7233 41.1626 28.8386 41.5224 28.3596 41.8481C28.342 41.86 28.3243 41.8717 28.3065 41.8831C27.5206 42.3861 26.8818 43.3523 26.994 45.5967C26.9959 45.6346 26.9969 45.6726 26.9969 45.7106V57.5728Z" fill="white"/>
<path fill-rule="evenodd" clip-rule="evenodd" d="M67.2432 111.402C67.645 112.117 68.3992 112.56 69.2188 112.565C81.5673 112.634 92.1408 111.739 100.905 109.848C104.25 109.177 107.033 107.888 108.915 105.749C110.896 103.577 111.756 100.716 111.756 97.4513V44.992C111.756 41.8947 111.333 39.2084 110.265 37.1611C109.136 34.9969 107.263 33.5514 104.881 32.7747C102.661 31.9628 99.6889 31.6233 96.1285 31.6233C85.6117 31.6233 77.6327 32.4392 72.4021 34.2073C72.3898 34.2115 72.3775 34.2157 72.3653 34.2201C69.7011 35.1716 67.501 36.5462 65.9655 38.4545C64.4054 40.3935 63.6651 42.7191 63.6651 45.2999V80.2044C63.6651 83.4129 64.5758 86.2377 66.9016 88.0579C66.9181 88.0708 66.9347 88.0835 66.9516 88.0959C69.1428 89.7155 72.4463 90.2879 76.3151 90.2879C79.3647 90.2879 82.3491 89.9255 85.2639 89.1988C87.6884 88.6443 90.5824 87.9204 93.9417 87.0291L93.9698 87.0215L95.4897 86.5973V96.63C95.4897 97.9996 95.3484 98.6996 95.2422 98.9652C95.2171 99.0281 95.1947 99.0921 95.1753 99.1569C95.1481 99.2475 95.0019 99.5721 94.3878 100.09C93.8588 100.494 92.729 100.984 90.6777 101.369L90.644 101.375C86.5104 102.215 79.2548 102.664 68.7182 102.664C67.8167 102.664 66.9997 103.195 66.6335 104.019C66.1683 105.066 66.0262 106.331 66.0262 107.615C66.0262 108.897 66.5712 110.208 67.2432 111.402ZM95.4897 77.2517V46.2239C95.4897 44.7801 95.3842 43.6594 95.2061 42.824C95.0237 41.9678 94.7963 41.5607 94.6659 41.4002C94.6334 41.3603 94.6023 41.3193 94.5727 41.2772C94.3832 41.0088 93.7785 40.4977 91.8167 40.4977C88.8967 40.4977 86.568 40.6328 84.7992 40.8855C82.9655 41.1474 81.9799 41.5045 81.5486 41.7805L81.5343 41.7895C80.5457 42.412 79.876 43.4836 79.9303 45.6536C79.9307 45.6726 79.931 45.6916 79.931 45.7106V77.6379C79.931 78.4633 80.1745 78.7635 80.4346 78.954C80.8272 79.2414 81.6932 79.5656 83.3986 79.5656C85.8285 79.5656 89.8128 78.8381 95.4897 77.2517Z" fill="white"/>
<path fill-rule="evenodd" clip-rule="evenodd" d="M166.086 78.7735C165.605 77.8113 164.517 77.316 163.475 77.5848C161.465 78.1035 158.134 78.7399 153.42 79.4914L153.415 79.4922C148.809 80.2373 145.251 80.5922 142.692 80.5922C141.239 80.5922 140.118 80.4942 139.29 80.3285C138.513 80.1731 138.14 79.9864 137.996 79.8881C137.939 79.826 137.791 79.6262 137.651 79.1273C137.487 78.5412 137.377 77.6879 137.377 76.5086V66.9288C143.114 66.4842 149.382 65.7401 156.178 64.6992C156.225 64.6921 156.271 64.6835 156.317 64.6735C159.705 63.937 162.514 62.655 164.395 60.5946L164.416 60.5717L164.428 60.5587C166.331 58.3833 167.148 55.5297 167.148 52.2808V44.992C167.148 41.8947 166.725 39.2084 165.657 37.1611C164.528 34.9969 162.656 33.5513 160.274 32.7747C158.053 31.9628 155.081 31.6233 151.521 31.6233C141.627 31.6233 134.156 32.4363 129.366 34.2324L129.359 34.2351C126.816 35.1986 124.722 36.5894 123.268 38.5058C121.798 40.4439 121.111 42.7511 121.111 45.2999V80.5124C121.111 83.6566 122.103 86.3987 124.537 88.1229C124.549 88.1314 124.561 88.1396 124.573 88.1478C126.858 89.7016 130.127 90.2879 133.966 90.2879C145.081 90.2879 155.339 89.0722 164.725 86.6207C165.318 86.4657 165.824 86.078 166.129 85.5453C166.685 84.5716 166.84 83.4285 166.84 82.3603C166.84 81.0949 166.631 79.8639 166.086 78.7735ZM137.377 57.5728C140.772 57.2249 143.585 56.8363 145.827 56.4107C147.146 56.1199 148.177 55.8186 148.949 55.5186C149.754 55.2053 150.138 54.946 150.281 54.8136C150.442 54.6655 150.882 54.0011 150.882 51.9729V45.7106C150.882 44.3767 150.777 43.3531 150.605 42.5991C150.43 41.829 150.216 41.4812 150.105 41.3531C150.07 41.3125 150.036 41.2707 150.004 41.2278C149.831 40.9979 149.214 40.4977 147.209 40.4977C144.894 40.4977 143.028 40.6392 141.58 40.8984C140.103 41.1626 139.218 41.5224 138.739 41.8481L138.719 41.8616C138.708 41.8689 138.697 41.8761 138.686 41.8831C137.9 42.3861 137.261 43.3523 137.374 45.5967C137.376 45.6346 137.377 45.6726 137.377 45.7106V57.5728Z" fill="white"/>
<path d="M200.261 88.2483C200.983 88.0404 201.557 87.4903 201.794 86.7774C202.063 85.9709 202.219 85.1442 202.219 84.3108C202.219 83.2724 202.052 82.1805 201.508 81.2284C201.09 80.497 200.303 80.0555 199.461 80.0799L193.758 80.2452C193.658 79.506 193.596 78.4156 193.596 76.9193V41.3597L199.698 40.902C200.454 40.8453 201.132 40.417 201.508 39.7589C202.064 38.7852 202.219 37.6421 202.219 36.5738C202.219 35.673 201.961 34.5457 201.613 33.3636C201.309 32.3309 200.325 31.651 199.252 31.7325L193.596 32.1621V18.403C193.596 17.4696 193.361 16.3505 192.491 15.4809C191.622 14.6113 190.503 14.3764 189.569 14.3764C186.43 14.3764 183.443 14.7782 180.619 15.5957C180.563 15.612 180.508 15.6304 180.453 15.651C179.645 15.9538 178.843 16.4299 178.24 17.1832C177.612 17.9683 177.33 18.8946 177.33 19.8402V33.2095L171.861 33.5791C171.098 33.6306 170.413 34.0601 170.034 34.7234C169.477 35.6971 169.322 36.8401 169.322 37.9084C169.322 38.8093 169.581 39.9366 169.928 41.1186C170.23 42.1453 171.205 42.8241 172.273 42.7509L177.33 42.4046V83.5389C177.264 84.9786 177.306 86.3557 177.652 87.3934C177.686 87.4958 177.728 87.5957 177.776 87.6922C178.468 89.0772 179.76 89.7083 180.994 89.9331C182.116 90.1973 183.773 90.2879 185.771 90.2879C190.706 90.2879 195.538 89.608 200.261 88.2483Z" fill="white"/>
<path fill-rule="evenodd" clip-rule="evenodd" d="M255.73 41.7069C255.73 38.5205 254.829 35.6968 252.469 33.9367C250.268 32.2289 246.95 31.6233 243.08 31.6233C242.174 31.6233 240.667 31.697 238.616 31.8337L238.586 31.8359C238.566 31.8375 238.546 31.8394 238.525 31.8416C236.4 32.0693 232.952 32.8713 228.31 34.1682C226.502 34.6539 225.035 35.0477 223.905 35.3504V17.9426C223.94 17.1762 223.933 16.4654 223.868 15.8327C223.809 15.2621 223.69 14.6273 223.427 14.0415C222.857 12.5272 221.549 11.79 220.243 11.5492C219.121 11.2846 217.463 11.194 215.464 11.194C210.53 11.194 205.697 11.8738 200.974 13.2336C200.252 13.4414 199.679 13.9916 199.441 14.7044C199.172 15.511 199.016 16.3377 199.016 17.1711C199.016 18.2095 199.183 19.3014 199.727 20.2535C200.145 20.9848 200.932 21.4264 201.774 21.402L207.477 21.2367C207.577 21.9759 207.639 23.0663 207.639 24.5626V76.7139C207.639 79.8112 208.062 82.4975 209.13 84.5448C209.142 84.5674 209.154 84.5898 209.167 84.6121C210.36 86.7237 212.231 88.1816 214.594 89.0257C216.872 89.8392 219.879 90.1852 223.472 90.1852C234.051 90.1852 242.022 89.3373 247.142 87.4823L247.169 87.4722C249.788 86.4854 251.948 85.1036 253.457 83.2233C254.992 81.3103 255.73 79.032 255.73 76.5086V41.7069ZM239.464 76.098V44.2733C239.464 43.4479 239.221 43.1477 238.96 42.9573C238.568 42.6698 237.702 42.3456 235.996 42.3456C233.567 42.3456 229.582 43.0732 223.905 44.6596V75.5847C223.905 77.0362 224.003 78.1696 224.17 79.0198C224.343 79.8949 224.559 80.3153 224.681 80.4781C224.824 80.6687 225.489 81.2082 227.784 81.2082C231.403 81.2082 234.049 81.0058 235.805 80.6471C237.53 80.2257 238.362 79.6528 238.732 79.1899L238.743 79.1764C239.177 78.6426 239.521 77.7434 239.465 76.1794C239.465 76.1667 239.465 76.1539 239.464 76.1412L239.464 76.1217L239.464 76.098Z" fill="white"/>
<path fill-rule="evenodd" clip-rule="evenodd" d="M305.788 32.7747C303.567 31.9628 300.595 31.6233 297.035 31.6233C286.518 31.6233 278.539 32.4392 273.309 34.2073C273.296 34.2115 273.284 34.2157 273.272 34.2201C270.608 35.1716 268.408 36.5462 266.872 38.4545C265.312 40.3935 264.572 42.7191 264.572 45.2999V76.7139C264.572 79.8112 264.994 82.4975 266.062 84.5448C266.074 84.5674 266.086 84.5898 266.099 84.6121C267.292 86.7237 269.163 88.1816 271.527 89.0257C273.804 89.8392 276.811 90.1852 280.404 90.1852C290.983 90.1852 298.954 89.3373 304.074 87.4823L304.102 87.4722C306.72 86.4854 308.881 85.1036 310.389 83.2233C311.924 81.3103 312.662 79.032 312.662 76.5086V44.992C312.662 41.8947 312.24 39.2084 311.171 37.1611C310.042 34.9969 308.17 33.5514 305.788 32.7747ZM296.396 76.098V46.2239C296.396 44.7801 296.291 43.6594 296.113 42.824C295.93 41.9678 295.703 41.5607 295.572 41.4002C295.54 41.3603 295.509 41.3193 295.479 41.2772C295.29 41.0088 294.685 40.4977 292.723 40.4977C289.803 40.4977 287.475 40.6328 285.706 40.8855C283.872 41.1474 282.886 41.5045 282.455 41.7805L282.441 41.7895C281.452 42.412 280.783 43.4836 280.837 45.6536L280.837 45.6804L280.838 45.7106V75.5847C280.838 77.0362 280.935 78.1696 281.103 79.0198C281.275 79.8949 281.491 80.3153 281.613 80.4781C281.756 80.668 282.416 81.2042 284.691 81.2082C287.639 81.1404 289.988 80.9648 291.765 80.695C293.607 80.4155 294.584 80.0686 294.996 79.8153C295.819 79.2831 296.452 78.3018 296.397 76.1565L296.396 76.1285L296.396 76.098Z" fill="white"/>
<path d="M347.735 88.2483C348.457 88.0404 349.03 87.4903 349.268 86.7774C349.537 85.9709 349.693 85.1442 349.693 84.3108C349.693 83.2724 349.526 82.1805 348.982 81.2284C348.564 80.497 347.777 80.0555 346.935 80.0799L341.232 80.2452C341.132 79.506 341.069 78.4156 341.069 76.9193V41.3597L347.171 40.902C347.927 40.8453 348.605 40.417 348.982 39.7589C349.538 38.7852 349.693 37.6421 349.693 36.5738C349.693 35.673 349.434 34.5457 349.087 33.3636C348.783 32.3309 347.799 31.651 346.725 31.7325L341.069 32.1621V18.403C341.069 17.4696 340.834 16.3505 339.965 15.4809C339.095 14.6113 337.976 14.3764 337.043 14.3764C333.904 14.3764 330.917 14.7782 328.093 15.5957C328.037 15.612 327.981 15.6304 327.926 15.651C327.119 15.9538 326.317 16.4299 325.714 17.1832C325.086 17.9683 324.803 18.8946 324.803 19.8402V33.2095L319.334 33.5791C318.572 33.6306 317.886 34.0601 317.507 34.7234C316.951 35.6971 316.796 36.8401 316.796 37.9084C316.796 38.8093 317.054 39.9366 317.402 41.1186C317.704 42.1453 318.679 42.8241 319.746 42.7509L324.803 42.4046V83.5386C324.738 84.9784 324.78 86.3556 325.126 87.3934C325.16 87.4958 325.201 87.5957 325.25 87.6922C325.942 89.0772 327.233 89.7083 328.467 89.9331C329.589 90.1973 331.247 90.2879 333.244 90.2879C338.179 90.2879 343.011 89.608 347.735 88.2483Z" fill="white"/>
</g>
<g style="mix-blend-mode:luminosity" opacity="0.8">
<path fill-rule="evenodd" clip-rule="evenodd" d="M55.7062 78.7735C55.2251 77.8113 54.1372 77.316 53.0956 77.5848C51.0857 78.1035 47.7546 78.7399 43.0405 79.4914L43.0354 79.4922C38.4292 80.2373 34.8716 80.5922 32.3124 80.5922C30.8596 80.5922 29.7382 80.4942 28.91 80.3285C28.1329 80.1731 27.7601 79.9864 27.616 79.8881C27.5593 79.826 27.4114 79.6262 27.2717 79.1273C27.1076 78.5412 26.9969 77.6879 26.9969 76.5086V66.9288C32.7341 66.4842 39.0022 65.7401 45.7983 64.6992C45.8449 64.6921 45.8914 64.6835 45.9375 64.6735C49.3252 63.937 52.1347 62.655 54.0158 60.5946C54.0267 60.5828 54.0374 60.5708 54.048 60.5587C55.9515 58.3833 56.7683 55.5297 56.7683 52.2808V44.992C56.7683 41.8947 56.3458 39.2084 55.2776 37.1611C54.1485 34.9969 52.2761 33.5514 49.8942 32.7747C47.6734 31.9628 44.7016 31.6233 41.1412 31.6233C31.247 31.6233 23.7765 32.4363 18.9868 34.2324L18.9798 34.2351C16.436 35.1986 14.3425 36.5894 12.8887 38.5058C11.4184 40.4439 10.731 42.7511 10.731 45.2999V80.5124C10.731 83.6566 11.7232 86.3987 14.1575 88.1229C14.1694 88.1314 14.1813 88.1396 14.1933 88.1478C16.4783 89.7016 19.7471 90.2879 23.5863 90.2879C34.7018 90.2879 44.9592 89.0722 54.3449 86.6207C54.9385 86.4657 55.4447 86.078 55.7491 85.5453C56.3055 84.5716 56.4603 83.4285 56.4603 82.3603C56.4603 81.0949 56.2514 79.8639 55.7062 78.7735ZM26.9969 57.5728C30.3928 57.2249 33.2054 56.8363 35.4472 56.4107C36.7666 56.1199 37.7976 55.8186 38.5691 55.5186C39.3747 55.2053 39.7583 54.946 39.9018 54.8136C40.0622 54.6655 40.5024 54.0011 40.5024 51.9729V45.7106C40.5024 44.3767 40.3978 43.3531 40.2259 42.5991C40.0502 41.829 39.8362 41.4812 39.7252 41.3531C39.69 41.3125 39.6563 41.2707 39.6241 41.2278C39.4517 40.9979 38.8345 40.4977 36.8294 40.4977C34.5144 40.4977 32.6483 40.6392 31.2 40.8984C29.7233 41.1626 28.8386 41.5224 28.3596 41.8481C28.342 41.86 28.3243 41.8717 28.3065 41.8831C27.5206 42.3861 26.8818 43.3523 26.994 45.5967C26.9959 45.6346 26.9969 45.6726 26.9969 45.7106V57.5728Z" fill="white"/>
<path fill-rule="evenodd" clip-rule="evenodd" d="M67.2432 111.402C67.645 112.117 68.3992 112.56 69.2188 112.565C81.5673 112.634 92.1408 111.739 100.905 109.848C104.25 109.177 107.033 107.888 108.915 105.749C110.896 103.577 111.756 100.716 111.756 97.4513V44.992C111.756 41.8947 111.333 39.2084 110.265 37.1611C109.136 34.9969 107.263 33.5514 104.881 32.7747C102.661 31.9628 99.6889 31.6233 96.1285 31.6233C85.6117 31.6233 77.6327 32.4392 72.4021 34.2073C72.3898 34.2115 72.3775 34.2157 72.3653 34.2201C69.7011 35.1716 67.501 36.5462 65.9655 38.4545C64.4054 40.3935 63.6651 42.7191 63.6651 45.2999V80.2044C63.6651 83.4129 64.5758 86.2377 66.9016 88.0579C66.9181 88.0708 66.9347 88.0835 66.9516 88.0959C69.1428 89.7155 72.4463 90.2879 76.3151 90.2879C79.3647 90.2879 82.3491 89.9255 85.2639 89.1988C87.6884 88.6443 90.5824 87.9204 93.9417 87.0291L93.9698 87.0215L95.4897 86.5973V96.63C95.4897 97.9996 95.3484 98.6996 95.2422 98.9652C95.2171 99.0281 95.1947 99.0921 95.1753 99.1569C95.1481 99.2475 95.0019 99.5721 94.3878 100.09C93.8588 100.494 92.729 100.984 90.6777 101.369L90.644 101.375C86.5104 102.215 79.2548 102.664 68.7182 102.664C67.8167 102.664 66.9997 103.195 66.6335 104.019C66.1683 105.066 66.0262 106.331 66.0262 107.615C66.0262 108.897 66.5712 110.208 67.2432 111.402ZM95.4897 77.2517V46.2239C95.4897 44.7801 95.3842 43.6594 95.2061 42.824C95.0237 41.9678 94.7963 41.5607 94.6659 41.4002C94.6334 41.3603 94.6023 41.3193 94.5727 41.2772C94.3832 41.0088 93.7785 40.4977 91.8167 40.4977C88.8967 40.4977 86.568 40.6328 84.7992 40.8855C82.9655 41.1474 81.9799 41.5045 81.5486 41.7805L81.5343 41.7895C80.5457 42.412 79.876 43.4836 79.9303 45.6536C79.9307 45.6726 79.931 45.6916 79.931 45.7106V77.6379C79.931 78.4633 80.1745 78.7635 80.4346 78.954C80.8272 79.2414 81.6932 79.5656 83.3986 79.5656C85.8285 79.5656 89.8128 78.8381 95.4897 77.2517Z" fill="white"/>
<path fill-rule="evenodd" clip-rule="evenodd" d="M166.086 78.7735C165.605 77.8113 164.517 77.316 163.475 77.5848C161.465 78.1035 158.134 78.7399 153.42 79.4914L153.415 79.4922C148.809 80.2373 145.251 80.5922 142.692 80.5922C141.239 80.5922 140.118 80.4942 139.29 80.3285C138.513 80.1731 138.14 79.9864 137.996 79.8881C137.939 79.826 137.791 79.6262 137.651 79.1273C137.487 78.5412 137.377 77.6879 137.377 76.5086V66.9288C143.114 66.4842 149.382 65.7401 156.178 64.6992C156.225 64.6921 156.271 64.6835 156.317 64.6735C159.705 63.937 162.514 62.655 164.395 60.5946L164.416 60.5717L164.428 60.5587C166.331 58.3833 167.148 55.5297 167.148 52.2808V44.992C167.148 41.8947 166.725 39.2084 165.657 37.1611C164.528 34.9969 162.656 33.5513 160.274 32.7747C158.053 31.9628 155.081 31.6233 151.521 31.6233C141.627 31.6233 134.156 32.4363 129.366 34.2324L129.359 34.2351C126.816 35.1986 124.722 36.5894 123.268 38.5058C121.798 40.4439 121.111 42.7511 121.111 45.2999V80.5124C121.111 83.6566 122.103 86.3987 124.537 88.1229C124.549 88.1314 124.561 88.1396 124.573 88.1478C126.858 89.7016 130.127 90.2879 133.966 90.2879C145.081 90.2879 155.339 89.0722 164.725 86.6207C165.318 86.4657 165.824 86.078 166.129 85.5453C166.685 84.5716 166.84 83.4285 166.84 82.3603C166.84 81.0949 166.631 79.8639 166.086 78.7735ZM137.377 57.5728C140.772 57.2249 143.585 56.8363 145.827 56.4107C147.146 56.1199 148.177 55.8186 148.949 55.5186C149.754 55.2053 150.138 54.946 150.281 54.8136C150.442 54.6655 150.882 54.0011 150.882 51.9729V45.7106C150.882 44.3767 150.777 43.3531 150.605 42.5991C150.43 41.829 150.216 41.4812 150.105 41.3531C150.07 41.3125 150.036 41.2707 150.004 41.2278C149.831 40.9979 149.214 40.4977 147.209 40.4977C144.894 40.4977 143.028 40.6392 141.58 40.8984C140.103 41.1626 139.218 41.5224 138.739 41.8481L138.719 41.8616C138.708 41.8689 138.697 41.8761 138.686 41.8831C137.9 42.3861 137.261 43.3523 137.374 45.5967C137.376 45.6346 137.377 45.6726 137.377 45.7106V57.5728Z" fill="white"/>
<path d="M200.261 88.2483C200.983 88.0404 201.557 87.4903 201.794 86.7774C202.063 85.9709 202.219 85.1442 202.219 84.3108C202.219 83.2724 202.052 82.1805 201.508 81.2284C201.09 80.497 200.303 80.0555 199.461 80.0799L193.758 80.2452C193.658 79.506 193.596 78.4156 193.596 76.9193V41.3597L199.698 40.902C200.454 40.8453 201.132 40.417 201.508 39.7589C202.064 38.7852 202.219 37.6421 202.219 36.5738C202.219 35.673 201.961 34.5457 201.613 33.3636C201.309 32.3309 200.325 31.651 199.252 31.7325L193.596 32.1621V18.403C193.596 17.4696 193.361 16.3505 192.491 15.4809C191.622 14.6113 190.503 14.3764 189.569 14.3764C186.43 14.3764 183.443 14.7782 180.619 15.5957C180.563 15.612 180.508 15.6304 180.453 15.651C179.645 15.9538 178.843 16.4299 178.24 17.1832C177.612 17.9683 177.33 18.8946 177.33 19.8402V33.2095L171.861 33.5791C171.098 33.6306 170.413 34.0601 170.034 34.7234C169.477 35.6971 169.322 36.8401 169.322 37.9084C169.322 38.8093 169.581 39.9366 169.928 41.1186C170.23 42.1453 171.205 42.8241 172.273 42.7509L177.33 42.4046V83.5389C177.264 84.9786 177.306 86.3557 177.652 87.3934C177.686 87.4958 177.728 87.5957 177.776 87.6922C178.468 89.0772 179.76 89.7083 180.994 89.9331C182.116 90.1973 183.773 90.2879 185.771 90.2879C190.706 90.2879 195.538 89.608 200.261 88.2483Z" fill="white"/>
<path fill-rule="evenodd" clip-rule="evenodd" d="M255.73 41.7069C255.73 38.5205 254.829 35.6968 252.469 33.9367C250.268 32.2289 246.95 31.6233 243.08 31.6233C242.174 31.6233 240.667 31.697 238.616 31.8337L238.586 31.8359C238.566 31.8375 238.546 31.8394 238.525 31.8416C236.4 32.0693 232.952 32.8713 228.31 34.1682C226.502 34.6539 225.035 35.0477 223.905 35.3504V17.9426C223.94 17.1762 223.933 16.4654 223.868 15.8327C223.809 15.2621 223.69 14.6273 223.427 14.0415C222.857 12.5272 221.549 11.79 220.243 11.5492C219.121 11.2846 217.463 11.194 215.464 11.194C210.53 11.194 205.697 11.8738 200.974 13.2336C200.252 13.4414 199.679 13.9916 199.441 14.7044C199.172 15.511 199.016 16.3377 199.016 17.1711C199.016 18.2095 199.183 19.3014 199.727 20.2535C200.145 20.9848 200.932 21.4264 201.774 21.402L207.477 21.2367C207.577 21.9759 207.639 23.0663 207.639 24.5626V76.7139C207.639 79.8112 208.062 82.4975 209.13 84.5448C209.142 84.5674 209.154 84.5898 209.167 84.6121C210.36 86.7237 212.231 88.1816 214.594 89.0257C216.872 89.8392 219.879 90.1852 223.472 90.1852C234.051 90.1852 242.022 89.3373 247.142 87.4823L247.169 87.4722C249.788 86.4854 251.948 85.1036 253.457 83.2233C254.992 81.3103 255.73 79.032 255.73 76.5086V41.7069ZM239.464 76.098V44.2733C239.464 43.4479 239.221 43.1477 238.96 42.9573C238.568 42.6698 237.702 42.3456 235.996 42.3456C233.567 42.3456 229.582 43.0732 223.905 44.6596V75.5847C223.905 77.0362 224.003 78.1696 224.17 79.0198C224.343 79.8949 224.559 80.3153 224.681 80.4781C224.824 80.6687 225.489 81.2082 227.784 81.2082C231.403 81.2082 234.049 81.0058 235.805 80.6471C237.53 80.2257 238.362 79.6528 238.732 79.1899L238.743 79.1764C239.177 78.6426 239.521 77.7434 239.465 76.1794C239.465 76.1667 239.465 76.1539 239.464 76.1412L239.464 76.1217L239.464 76.098Z" fill="white"/>
<path fill-rule="evenodd" clip-rule="evenodd" d="M305.788 32.7747C303.567 31.9628 300.595 31.6233 297.035 31.6233C286.518 31.6233 278.539 32.4392 273.309 34.2073C273.296 34.2115 273.284 34.2157 273.272 34.2201C270.608 35.1716 268.408 36.5462 266.872 38.4545C265.312 40.3935 264.572 42.7191 264.572 45.2999V76.7139C264.572 79.8112 264.994 82.4975 266.062 84.5448C266.074 84.5674 266.086 84.5898 266.099 84.6121C267.292 86.7237 269.163 88.1816 271.527 89.0257C273.804 89.8392 276.811 90.1852 280.404 90.1852C290.983 90.1852 298.954 89.3373 304.074 87.4823L304.102 87.4722C306.72 86.4854 308.881 85.1036 310.389 83.2233C311.924 81.3103 312.662 79.032 312.662 76.5086V44.992C312.662 41.8947 312.24 39.2084 311.171 37.1611C310.042 34.9969 308.17 33.5514 305.788 32.7747ZM296.396 76.098V46.2239C296.396 44.7801 296.291 43.6594 296.113 42.824C295.93 41.9678 295.703 41.5607 295.572 41.4002C295.54 41.3603 295.509 41.3193 295.479 41.2772C295.29 41.0088 294.685 40.4977 292.723 40.4977C289.803 40.4977 287.475 40.6328 285.706 40.8855C283.872 41.1474 282.886 41.5045 282.455 41.7805L282.441 41.7895C281.452 42.412 280.783 43.4836 280.837 45.6536L280.837 45.6804L280.838 45.7106V75.5847C280.838 77.0362 280.935 78.1696 281.103 79.0198C281.275 79.8949 281.491 80.3153 281.613 80.4781C281.756 80.668 282.416 81.2042 284.691 81.2082C287.639 81.1404 289.988 80.9648 291.765 80.695C293.607 80.4155 294.584 80.0686 294.996 79.8153C295.819 79.2831 296.452 78.3018 296.397 76.1565L296.396 76.1285L296.396 76.098Z" fill="white"/>
<path d="M347.735 88.2483C348.457 88.0404 349.03 87.4903 349.268 86.7774C349.537 85.9709 349.693 85.1442 349.693 84.3108C349.693 83.2724 349.526 82.1805 348.982 81.2284C348.564 80.497 347.777 80.0555 346.935 80.0799L341.232 80.2452C341.132 79.506 341.069 78.4156 341.069 76.9193V41.3597L347.171 40.902C347.927 40.8453 348.605 40.417 348.982 39.7589C349.538 38.7852 349.693 37.6421 349.693 36.5738C349.693 35.673 349.434 34.5457 349.087 33.3636C348.783 32.3309 347.799 31.651 346.725 31.7325L341.069 32.1621V18.403C341.069 17.4696 340.834 16.3505 339.965 15.4809C339.095 14.6113 337.976 14.3764 337.043 14.3764C333.904 14.3764 330.917 14.7782 328.093 15.5957C328.037 15.612 327.981 15.6304 327.926 15.651C327.119 15.9538 326.317 16.4299 325.714 17.1832C325.086 17.9683 324.803 18.8946 324.803 19.8402V33.2095L319.334 33.5791C318.572 33.6306 317.886 34.0601 317.507 34.7234C316.951 35.6971 316.796 36.8401 316.796 37.9084C316.796 38.8093 317.054 39.9366 317.402 41.1186C317.704 42.1453 318.679 42.8241 319.746 42.7509L324.803 42.4046V83.5386C324.738 84.9784 324.78 86.3556 325.126 87.3934C325.16 87.4958 325.201 87.5957 325.25 87.6922C325.942 89.0772 327.233 89.7083 328.467 89.9331C329.589 90.1973 331.247 90.2879 333.244 90.2879C338.179 90.2879 343.011 89.608 347.735 88.2483Z" fill="white"/>
</g>
<defs>
<filter id="filter0_d_751_174" x="0.730957" y="1.19397" width="358.962" height="121.375" filterUnits="userSpaceOnUse" color-interpolation-filters="sRGB">
<feFlood flood-opacity="0" result="BackgroundImageFix"/>
<feColorMatrix in="SourceAlpha" type="matrix" values="0 0 0 0 0 0 0 0 0 0 0 0 0 0 0 0 0 0 127 0" result="hardAlpha"/>
<feOffset/>
<feGaussianBlur stdDeviation="5"/>
<feComposite in2="hardAlpha" operator="out"/>
<feColorMatrix type="matrix" values="0 0 0 0 0 0 0 0 0 0 0 0 0 0 0 0 0 0 1 0"/>
<feBlend mode="normal" in2="BackgroundImageFix" result="effect1_dropShadow_751_174"/>
<feBlend mode="normal" in="SourceGraphic" in2="effect1_dropShadow_751_174" result="shape"/>
</filter>
<linearGradient id="paint0_linear_751_174" x1="-33.5754" y1="-10.8395" x2="48.1071" y2="229.295" gradientUnits="userSpaceOnUse">
<stop stop-color="#CCFF00"/>
<stop offset="1" stop-color="#00CA89"/>
</linearGradient>
</defs>
</svg>
