<svg width="16" height="16" viewBox="0 0 16 16" fill="none" xmlns="http://www.w3.org/2000/svg">
<rect width="16" height="16" rx="2" fill="url(#paint0_linear_725_22)"/>
<rect width="16" height="16" rx="2" fill="#239925" fill-opacity="0.6"/>
<g style="mix-blend-mode:overlay" filter="url(#filter0_d_725_22)">
<path fill-rule="evenodd" clip-rule="evenodd" d="M11.9231 11.3169C12.1314 11.2632 12.349 11.3622 12.4452 11.5547C12.5543 11.7727 12.5961 12.0189 12.5961 12.272C12.5961 12.4857 12.5651 12.7143 12.4538 12.909C12.3929 13.0156 12.2917 13.0931 12.173 13.1241C10.2958 13.6144 8.24437 13.8575 6.02126 13.8575C5.25343 13.8575 4.59966 13.7403 4.14267 13.4295C4.14026 13.4279 4.13787 13.4262 4.1355 13.4245C3.64865 13.0797 3.4502 12.5313 3.4502 11.9024V4.85996C3.4502 4.35018 3.58768 3.88875 3.88174 3.50113C4.1725 3.11785 4.5912 2.8397 5.09995 2.64699L5.10137 2.64645C6.05931 2.28723 7.55339 2.12463 9.53223 2.12463C10.2443 2.12463 10.8387 2.19252 11.2828 2.35491C11.7592 2.51024 12.1337 2.79934 12.3595 3.23219C12.5732 3.64165 12.6577 4.1789 12.6577 4.79836V6.25613C12.6577 6.9059 12.4943 7.47662 12.1136 7.9117C12.1123 7.91322 12.1109 7.91474 12.1096 7.91624L12.1072 7.9189C11.7309 8.33096 11.169 8.58737 10.4915 8.73466C10.4823 8.73666 10.473 8.73838 10.4637 8.73981C9.10444 8.94798 7.85083 9.0968 6.70338 9.18572V11.1017C6.70338 11.3375 6.72552 11.5082 6.75834 11.6254C6.78628 11.7252 6.81587 11.7652 6.8272 11.7776C6.85602 11.7972 6.93058 11.8346 7.08601 11.8657C7.25164 11.8988 7.47591 11.9184 7.76648 11.9184C8.27831 11.9184 8.98984 11.8474 9.91107 11.6984L9.9121 11.6982C10.8549 11.5479 11.5211 11.4207 11.9231 11.3169ZM6.70338 7.31453C7.38256 7.24495 7.94508 7.16724 8.39344 7.08211C8.65733 7.02395 8.86353 6.96369 9.01781 6.90369C9.17895 6.84103 9.25566 6.78917 9.28435 6.76268C9.31644 6.73306 9.40448 6.60019 9.40448 6.19454V4.94209C9.40448 4.67532 9.38356 4.47059 9.34917 4.31979C9.31404 4.16577 9.27124 4.09621 9.24903 4.07058C9.242 4.06247 9.23526 4.05411 9.22881 4.04552C9.19433 3.99955 9.07089 3.89952 8.66989 3.89952C8.20687 3.89952 7.83366 3.92781 7.544 3.97964C7.24867 4.03249 7.07172 4.10444 6.97591 4.16959C6.97396 4.17092 6.97201 4.17223 6.97004 4.17352C6.96847 4.17455 6.96689 4.17558 6.9653 4.17659C6.80812 4.27719 6.68037 4.47042 6.70281 4.9193C6.70319 4.92689 6.70338 4.93449 6.70338 4.94209V7.31453Z" fill="white"/>
</g>
<g style="mix-blend-mode:luminosity" opacity="0.8">
<path fill-rule="evenodd" clip-rule="evenodd" d="M11.9231 11.3169C12.1314 11.2632 12.349 11.3622 12.4452 11.5547C12.5543 11.7727 12.5961 12.0189 12.5961 12.272C12.5961 12.4857 12.5651 12.7143 12.4538 12.909C12.3929 13.0156 12.2917 13.0931 12.173 13.1241C10.2958 13.6144 8.24437 13.8575 6.02126 13.8575C5.25343 13.8575 4.59966 13.7403 4.14267 13.4295C4.14026 13.4279 4.13787 13.4262 4.1355 13.4245C3.64865 13.0797 3.4502 12.5313 3.4502 11.9024V4.85996C3.4502 4.35018 3.58768 3.88875 3.88174 3.50113C4.1725 3.11785 4.5912 2.8397 5.09995 2.64699L5.10137 2.64645C6.05931 2.28723 7.55339 2.12463 9.53223 2.12463C10.2443 2.12463 10.8387 2.19252 11.2828 2.35491C11.7592 2.51024 12.1337 2.79934 12.3595 3.23219C12.5732 3.64165 12.6577 4.1789 12.6577 4.79836V6.25613C12.6577 6.9059 12.4943 7.47662 12.1136 7.9117C12.1123 7.91322 12.1109 7.91474 12.1096 7.91624L12.1072 7.9189C11.7309 8.33096 11.169 8.58737 10.4915 8.73466C10.4823 8.73666 10.473 8.73838 10.4637 8.73981C9.10444 8.94798 7.85083 9.0968 6.70338 9.18572V11.1017C6.70338 11.3375 6.72552 11.5082 6.75834 11.6254C6.78628 11.7252 6.81587 11.7652 6.8272 11.7776C6.85602 11.7972 6.93058 11.8346 7.08601 11.8657C7.25164 11.8988 7.47591 11.9184 7.76648 11.9184C8.27831 11.9184 8.98984 11.8474 9.91107 11.6984L9.9121 11.6982C10.8549 11.5479 11.5211 11.4207 11.9231 11.3169ZM6.70338 7.31453C7.38256 7.24495 7.94508 7.16724 8.39344 7.08211C8.65733 7.02395 8.86353 6.96369 9.01781 6.90369C9.17895 6.84103 9.25566 6.78917 9.28435 6.76268C9.31644 6.73306 9.40448 6.60019 9.40448 6.19454V4.94209C9.40448 4.67532 9.38356 4.47059 9.34917 4.31979C9.31404 4.16577 9.27124 4.09621 9.24903 4.07058C9.242 4.06247 9.23526 4.05411 9.22881 4.04552C9.19433 3.99955 9.07089 3.89952 8.66989 3.89952C8.20687 3.89952 7.83366 3.92781 7.544 3.97964C7.24867 4.03249 7.07172 4.10444 6.97591 4.16959C6.97396 4.17092 6.97201 4.17223 6.97004 4.17352C6.96847 4.17455 6.96689 4.17558 6.9653 4.17659C6.80812 4.27719 6.68037 4.47042 6.70281 4.9193C6.70319 4.92689 6.70338 4.93449 6.70338 4.94209V7.31453Z" fill="white"/>
</g>
<defs>
<filter id="filter0_d_725_22" x="1.4502" y="0.124634" width="13.2075" height="15.7329" filterUnits="userSpaceOnUse" color-interpolation-filters="sRGB">
<feFlood flood-opacity="0" result="BackgroundImageFix"/>
<feColorMatrix in="SourceAlpha" type="matrix" values="0 0 0 0 0 0 0 0 0 0 0 0 0 0 0 0 0 0 127 0" result="hardAlpha"/>
<feOffset/>
<feGaussianBlur stdDeviation="1"/>
<feComposite in2="hardAlpha" operator="out"/>
<feColorMatrix type="matrix" values="0 0 0 0 0 0 0 0 0 0 0 0 0 0 0 0 0 0 1 0"/>
<feBlend mode="normal" in2="BackgroundImageFix" result="effect1_dropShadow_725_22"/>
<feBlend mode="normal" in="SourceGraphic" in2="effect1_dropShadow_725_22" result="shape"/>
</filter>
<linearGradient id="paint0_linear_725_22" x1="-1.5" y1="-1.5" x2="16" y2="16" gradientUnits="userSpaceOnUse">
<stop stop-color="#CCFF00"/>
<stop offset="1" stop-color="#00CA89"/>
</linearGradient>
</defs>
</svg>
